<svg width="130" height="46" viewBox="0 0 130 46" fill="none" xmlns="http://www.w3.org/2000/svg">
<g clip-path="url(#clip0_1_5)">
<path fill-rule="evenodd" clip-rule="evenodd" d="M28.5436 12.1575H30.8591V23.283H37.7882V25.4021H28.5436V12.1575Z" fill="#277CEA"/>
<path fill-rule="evenodd" clip-rule="evenodd" d="M40.1987 12.1575H49.9706V14.2387H42.5143V17.6819H49.1233V19.7635H42.5143V23.3209H50.0646V25.4021H40.1987V12.1575Z" fill="#277CEA"/>
<path fill-rule="evenodd" clip-rule="evenodd" d="M52.8142 12.1575H54.9603L62.021 21.3147V12.1575H64.2993V25.4021H62.36L55.0924 15.9793V25.4021H52.8142V12.1575Z" fill="#277CEA"/>
<path fill-rule="evenodd" clip-rule="evenodd" d="M66.8046 23.4719L68.1977 21.8072C69.4591 22.9045 70.7398 23.5288 72.3586 23.5288C73.7894 23.5288 74.6939 22.8476 74.6939 21.8637V21.8262C74.6939 20.8798 74.1661 20.3689 71.7185 19.801C68.9134 19.1203 67.3319 18.2877 67.3319 15.8465V15.809C67.3319 13.5386 69.2146 11.9679 71.8317 11.9679C73.7521 11.9679 75.2774 12.5547 76.6138 13.6334L75.3713 15.393C74.185 14.5035 72.9991 14.0305 71.794 14.0305C70.4386 14.0305 69.6475 14.7307 69.6475 15.6008V15.6387C69.6475 16.6605 70.2498 17.1145 72.7919 17.7199C75.5786 18.4011 77.0094 19.404 77.0094 21.5985V21.6365C77.0094 24.1151 75.0701 25.591 72.302 25.591C70.2876 25.591 68.3861 24.8908 66.8046 23.4719Z" fill="#277CEA"/>
<path fill-rule="evenodd" clip-rule="evenodd" d="M79.1573 18.8176V18.7797C79.1573 15.0144 81.9628 11.93 85.9546 11.93C88.3834 11.93 89.852 12.7815 91.1134 13.9926L89.6259 15.7146C88.5713 14.7303 87.4421 14.0681 85.9357 14.0681C83.4314 14.0681 81.5861 16.1497 81.5861 18.7417V18.7797C81.5861 21.3718 83.4125 23.4719 85.9357 23.4719C87.5545 23.4719 88.5902 22.8286 89.7199 21.7693L91.2074 23.2826C89.8331 24.7205 88.3268 25.629 85.8602 25.629C82.0194 25.629 79.1573 22.6204 79.1573 18.8176Z" fill="#277CEA"/>
<path fill-rule="evenodd" clip-rule="evenodd" d="M102.057 18.8176V18.7797C102.057 16.2061 100.193 14.0681 97.5765 14.0681C94.9589 14.0681 93.1325 16.1682 93.1325 18.7417V18.7797C93.1325 21.3528 94.9967 23.4719 97.6138 23.4719C100.231 23.4719 102.057 21.3907 102.057 18.8176ZM90.7037 18.8176V18.7797C90.7037 15.0524 93.5658 11.93 97.6138 11.93C101.662 11.93 104.486 15.0144 104.486 18.7417V18.7797C104.486 22.507 101.624 25.629 97.5765 25.629C93.5281 25.629 90.7037 22.5449 90.7037 18.8176Z" fill="#277CEA"/>
<path fill-rule="evenodd" clip-rule="evenodd" d="M112.301 19.0446C114.052 19.0446 115.144 18.0607 115.144 16.6797V16.6418C115.144 15.0901 114.033 14.2765 112.301 14.2765H109.609V19.0446H112.301ZM107.292 12.1574H112.489C115.577 12.1574 117.497 13.9169 117.497 16.5849V16.6228C117.497 19.593 115.125 21.1447 112.225 21.1447H109.609V25.4019H107.292V12.1574Z" fill="#277CEA"/>
<path fill-rule="evenodd" clip-rule="evenodd" d="M119.87 12.1575H129.642V14.2387H122.186V17.6819H128.795V19.7635H122.186V23.3209H129.736V25.4021H119.87V12.1575Z" fill="#277CEA"/>
<path fill-rule="evenodd" clip-rule="evenodd" d="M0.041626 23.112C0.041626 27.8085 2.81153 31.8643 6.79262 33.7204C6.80506 33.6678 6.81707 33.6183 6.82994 33.5648C7.05605 32.5947 7.27701 31.5781 7.49281 30.5286C4.92456 29.0627 3.18694 26.2883 3.18694 23.112C3.18694 18.8923 6.25159 15.381 10.2589 14.7067C10.4433 13.5797 10.6227 12.4927 10.7982 11.4597C4.79328 11.9051 0.041626 16.959 0.041626 23.112Z" fill="#277CEA"/>
<path fill-rule="evenodd" clip-rule="evenodd" d="M12.8868 31.5455C12.6525 32.6915 12.4191 33.7724 12.1849 34.7865C18.3489 34.5097 23.2799 29.3799 23.2799 23.1122C23.2799 18.2976 20.371 14.1551 16.2286 12.3666C16.0536 13.3962 15.8738 14.4845 15.6889 15.6145C18.3343 17.0584 20.1342 19.8777 20.1342 23.1122C20.1342 27.3931 16.9803 30.9458 12.8868 31.5455Z" fill="#277CEA"/>
<path fill-rule="evenodd" clip-rule="evenodd" d="M17.5246 0.480611C14.9988 0.913056 13.3255 3.92163 12.2572 9.94869C12.2396 10.0479 12.222 10.1509 12.204 10.2514C12.1366 10.6364 12.0684 11.0292 11.9998 11.4327C11.8281 12.4364 11.6531 13.4953 11.4729 14.593C11.4085 14.9858 11.3438 15.3821 11.2785 15.7847C11.2288 16.0896 11.1786 16.3966 11.1284 16.7057C10.4368 20.956 9.67564 25.6331 8.82914 29.8735C8.74977 30.2714 8.66954 30.6642 8.58888 31.0535C8.3898 32.0115 8.18643 32.9441 7.97792 33.8362C7.95175 33.9496 7.92558 34.0574 7.8994 34.1677C7.8033 34.5717 7.70848 34.9572 7.61538 35.3237C6.1901 40.9407 5.1295 42.2682 4.77597 42.5687C4.53528 42.3682 3.90458 41.6771 3.03277 39.4924C2.70927 38.6815 1.79412 38.2878 0.987093 38.6133C0.181351 38.9388 -0.209937 39.8602 0.113562 40.6712C1.00125 42.8964 2.43554 45.7933 4.76353 45.7929C4.86736 45.7929 4.97376 45.7873 5.08188 45.7752C7.42016 45.5161 9.0694 42.4842 10.6942 35.9462C10.7886 35.5681 10.8821 35.1792 10.9761 34.7778C11.2043 33.8017 11.433 32.7544 11.6634 31.6356C11.7436 31.2467 11.8239 30.8492 11.9049 30.443C12.6343 26.7731 13.3912 22.3865 14.2325 17.217C14.2823 16.9113 14.332 16.6074 14.381 16.306C14.447 15.9016 14.5118 15.5032 14.5766 15.1083C14.7568 14.0088 14.9323 12.9495 15.103 11.9479C15.1721 11.5457 15.2395 11.155 15.3068 10.7726C15.3227 10.6834 15.3386 10.592 15.354 10.504C16.2846 5.25216 17.5254 3.69139 18.0518 3.59999C18.5877 3.506 19.7646 4.74038 20.3798 5.8243C20.8076 6.58399 21.7656 6.85173 22.5212 6.42273C23.2776 5.99374 23.5453 5.02882 23.1184 4.26784C22.87 3.82462 20.6042 -0.0466863 17.5246 0.480611Z" fill="#277CEA"/>
</g>
<defs>
<clipPath id="clip0_1_5">
<rect width="130" height="46" fill="white"/>
</clipPath>
</defs>
</svg>
